<?xml version="1.0" encoding="UTF-8"?>
<svg xmlns="http://www.w3.org/2000/svg" viewBox="-600 -600 1200 1200" width="1200" height="1200">
  <defs>
    <style>
      .gold { stroke:#d8b46a; }
      .mocha { stroke:#a47864; }
      .ivory { stroke:#efe8da; }
      .thin { stroke-width:1.25; }
      .hair { stroke-width:0.8; }
      .micro { stroke-width:0.55; }
      .none { fill:none; }
      .round { stroke-linecap:round; stroke-linejoin:round; }
      .soft { opacity:0.8; }
      .softer { opacity:0.16; }
      .faint { opacity:0.10; }
    </style>
    <path id="petal" d="M0,-320 C 32,-292 54,-244 56,-202 C 58,-154 34,-118 0,-94 C -34,-118 -58,-154 -56,-202 C -54,-244 -32,-292 0,-320 Z"/>
    <path id="petal2" d="M0,-210 C 22,-190 36,-160 38,-132 C 40,-96 22,-70 0,-52 C -22,-70 -40,-96 -38,-132 C -36,-160 -22,-190 0,-210 Z"/>
    <path id="drop" d="M0,-120 C 24,-98 30,-70 22,-44 C 14,-18 0,2 0,2 C 0,2 -14,-18 -22,-44 C -30,-70 -24,-98 0,-120 Z"/>
    <path id="leafArc" d="M-80,0 C -36,-46 36,-46 80,0 C 36,46 -36,46 -80,0 Z"/>
    <path id="scallop" d="M0,-26 C 10,-20 14,-10 12,-2 C 10,8 0,14 0,14 C 0,14 -10,8 -12,-2 C -14,-10 -10,-20 0,-26 Z"/>
  </defs>
  <rect x="-600" y="-600" width="1200" height="1200" fill="#f7f2e8"/>
  <g class="none round gold soft">
    <use href="#petal"/>
    <use href="#petal" transform="rotate(15)"/>
    <use href="#petal" transform="rotate(30)"/>
    <use href="#petal" transform="rotate(45)"/>
    <use href="#petal" transform="rotate(60)"/>
    <use href="#petal" transform="rotate(75)"/>
    <use href="#petal" transform="rotate(90)"/>
    <use href="#petal" transform="rotate(105)"/>
    <use href="#petal" transform="rotate(120)"/>
    <use href="#petal" transform="rotate(135)"/>
    <use href="#petal" transform="rotate(150)"/>
    <use href="#petal" transform="rotate(165)"/>
    <use href="#petal" transform="rotate(180)"/>
    <use href="#petal" transform="rotate(195)"/>
    <use href="#petal" transform="rotate(210)"/>
    <use href="#petal" transform="rotate(225)"/>
    <use href="#petal" transform="rotate(240)"/>
    <use href="#petal" transform="rotate(255)"/>
    <use href="#petal" transform="rotate(270)"/>
    <use href="#petal" transform="rotate(285)"/>
    <use href="#petal" transform="rotate(300)"/>
    <use href="#petal" transform="rotate(315)"/>
    <use href="#petal" transform="rotate(330)"/>
    <use href="#petal" transform="rotate(345)"/>
  </g>
</svg>
